<svg width="69" height="64" viewBox="0 0 69 64" fill="none" xmlns="http://www.w3.org/2000/svg">
    <path d="M31.4786 63.8152C14.1176 63.8152 0 49.6976 0 32.3439C0 14.9901 14.1176 0.865234 31.4786 0.865234C48.8396 0.865234 62.9572 14.9828 62.9572 32.3439C62.9572 49.7049 48.8396 63.8152 31.4786 63.8152ZM31.4786 1.89328C14.6895 1.89328 1.02805 15.5548 1.02805 32.3439C1.02805 49.1329 14.6823 62.7872 31.4714 62.7872C48.2605 62.7872 61.9147 49.1329 61.9147 32.3439C61.9147 15.5548 48.2605 1.89328 31.4786 1.89328Z" fill="black"/>
    <path d="M16.8757 16.6553H15.8477V59.399H16.8757V16.6553Z" fill="black"/>
    <path d="M37.9367 36.9044H15.8408V16.1406H37.9367C43.6633 16.1406 48.3185 20.7958 48.3185 26.5225C48.3185 32.2492 43.6633 36.9044 37.9367 36.9044ZM16.8761 35.8763H37.9367C43.0914 35.8763 47.2905 31.6772 47.2905 26.5225C47.2905 21.3678 43.0986 17.1687 37.9367 17.1687H16.8761V35.8763Z" fill="black"/>
    <path d="M49.7879 57.2925L33.3608 36.7098L34.1645 36.0654L50.5915 56.6482L49.7879 57.2925Z" fill="black"/>
    <path d="M27.475 63.4609C27.1926 63.4609 26.9609 63.2292 26.9609 62.9469V1.64031C26.9609 1.43036 27.084 1.24212 27.2795 1.16249C27.475 1.07561 27.6922 1.12629 27.8442 1.27832L62.3128 36.0293C62.4576 36.1741 62.5011 36.3986 62.4214 36.5868C62.3418 36.775 62.1536 36.9053 61.9436 36.9053H48.3183C48.036 36.9053 47.8043 36.6737 47.8043 36.3913C47.8043 36.109 48.036 35.8773 48.3183 35.8773H60.7056L27.9962 2.8928V62.9469C27.9962 63.2292 27.7646 63.4609 27.4822 63.4609H27.475Z" fill="black"/>
    <path d="M68.8431 35.877H49.6504V36.905H68.8431V35.877Z" fill="black"/>
</svg>